<svg xmlns="http://www.w3.org/2000/svg" viewBox="0 0 96 96">
  <defs>
    <linearGradient id="space" x1="12" y1="8" x2="84" y2="90" gradientUnits="userSpaceOnUse">
      <stop stop-color="#38bdf8"/>
      <stop offset=".55" stop-color="#6366f1"/>
      <stop offset="1" stop-color="#a855f7"/>
    </linearGradient>
    <filter id="glow" x="-40%" y="-40%" width="180%" height="180%">
      <feGaussianBlur stdDeviation="2.5" result="blur"/>
      <feMerge><feMergeNode in="blur"/><feMergeNode in="SourceGraphic"/></feMerge>
    </filter>
  </defs>
  <rect width="96" height="96" rx="28" fill="#111827"/>
  <rect x="5" y="5" width="86" height="86" rx="24" fill="url(#space)"/>
  <path d="M20 53c8 19 42 24 57 2 7-10 2-22-10-26" fill="none" stroke="#e0f2fe" stroke-linecap="round" stroke-width="3" opacity=".72"/>
  <path d="M58 28c-13-7-29-1-31 12-2 15 19 12 26 19 7 7-3 17-16 10" fill="none" stroke="#fff" stroke-linecap="round" stroke-width="9"/>
  <path d="M73 18l2.1 5.9L81 26l-5.9 2.1L73 34l-2.1-5.9L65 26l5.9-2.1z" fill="#fff" filter="url(#glow)"/>
  <circle cx="20" cy="53" r="2.5" fill="#fff"/>
</svg>
